<svg xmlns="http://www.w3.org/2000/svg" xmlns:xlink="http://www.w3.org/1999/xlink" version="1.1" id="Layer_3" x="0px" y="0px" style="enable-background:new 0 0 1366 768;" xml:space="preserve" viewBox="0 0 369.54430379746833 65.5826414143044">
    <defs id="SvgjsDefs1547"></defs>
    <g id="SvgjsG1548" featurekey="symbolFeature-0"
        transform="matrix(0.8304886944083097,0,0,0.8304886944083097,-8.30488615206736,-8.703521137231531)"
        fill="#ffcd3c">
        <defs xmlns="http://www.w3.org/2000/svg"></defs>
        <title xmlns="http://www.w3.org/2000/svg"></title>
        <path xmlns="http://www.w3.org/2000/svg"
            d="M85.32,62.07A68.22,68.22,0,0,1,79,66.23c-.54.31-1.08.62-1.63.92l-.2.11-.11,0,0,0h0l-.07,0-.1.05c-.14.08-.32.17-.52.26a14,14,0,0,1-1.32.52c-.48.17-1,.31-1.48.45a30.59,30.59,0,0,1-3.14.65c-1.08.18-2.19.31-3.33.41-2.27.2-4.65.28-7.16.32s-5.15.06-7.92.14c-1.38,0-2.8.11-4.25.21l-2.19.18c-.74.07-1.48.16-2.25.27a61,61,0,0,0-9,2,90.87,90.87,0,0,0-8.63,3c-1.39.57-2.76,1.16-4.12,1.77a39.89,39.89,0,0,0,9.58,7.16c2-1,4-2,6-2.83a48.67,48.67,0,0,1,7.14-2.39c.57-.14,1.17-.28,1.77-.4s1.2-.23,1.8-.33c1.2-.21,2.4-.38,3.59-.53,2.38-.31,4.73-.53,7-.79s4.53-.52,6.73-.9c1.09-.2,2.18-.42,3.26-.69a29.78,29.78,0,0,0,3.27-1c.56-.2,1.12-.43,1.7-.69l.89-.44c.3-.15.62-.33,1-.53a11.4,11.4,0,0,0,1.08-.7c.1-.06.2-.15.31-.22L77,72.1l.09-.07.07-.06.1-.09.19-.18L79,70.22q3.14-3,6.22-6.08c1-1.07,2.09-2.14,3.13-3.23.16-.52.3-1,.43-1.57Q87.07,60.78,85.32,62.07Z"
            style="fill-rule: evenodd;"></path>
        <path xmlns="http://www.w3.org/2000/svg"
            d="M80.24,49.11l-1.68-.06-.42,0-.21,0h-.16c-.19,0-.42,0-.65,0-1,0-2-.13-3.14-.26-2.21-.26-4.54-.66-6.94-1.12s-4.87-1-7.43-1.54-5.19-1.11-7.9-1.64c-1.36-.26-2.73-.52-4.13-.76l-2.12-.35-1.06-.17L43.3,43c-2.94-.4-5.92-.63-8.95-.74s-6.09-.09-9.19,0-6.25.33-9.43.61c-1.75.15-3.51.33-5.27.51a40.83,40.83,0,0,0-.46,6.1,41.64,41.64,0,0,0,.31,5c2.25-.38,4.44-.75,6.61-1.08,3-.48,6-.9,8.93-1.24s5.77-.59,8.56-.72,5.52-.19,8.15-.08l1,0,1,0,2,.12,3.92.31c2.59.23,5.13.49,7.62.73s4.93.48,7.33.65,4.74.28,7.12.25c1.2,0,2.39-.06,3.72-.21.34,0,.68-.08,1.06-.15l.14,0h.07l.06,0,.21-.06.43-.11,1.7-.46c2.26-.6,4.46-1.21,6.61-1.8l3.47-1v-.24c0-.24,0-.48,0-.72-1.06.11-2.15.19-3.24.24C84.63,49.15,82.47,49.17,80.24,49.11Z"
            style="fill-rule: evenodd;"></path>
        <path xmlns="http://www.w3.org/2000/svg"
            d="M79.08,74.93c-.5.46-1,.91-1.52,1.35l-.19.17-.08.07,0,0-.07.06-.09.08-.46.37-.58.4-.63.4c-.44.26-.9.51-1.37.75-.94.47-1.94.89-3,1.28s-2.08.73-3.17,1c-2.17.64-4.46,1.18-6.86,1.71s-4.92,1-7.51,1.58c-1.29.28-2.61.56-3.93.87-.67.15-1.34.3-2,.47l-1,.24-1,.27c-2.11.56-4.21,1.22-6.28,2a40.05,40.05,0,0,0,45.6-19Q82,72.23,79.08,74.93Z"
            style="fill-rule: evenodd;"></path>
        <path xmlns="http://www.w3.org/2000/svg"
            d="M80.29,26.58l.77.66.78.61,1.56,1.24c.63.5,1.25,1,1.87,1.55A40.08,40.08,0,0,0,58.79,10.48,218.06,218.06,0,0,1,77.17,24Z"
            style="fill-rule: evenodd;"></path>
        <path xmlns="http://www.w3.org/2000/svg"
            d="M82.65,33.53l-1.57-1.14c-.26-.18-.52-.38-.79-.56l-.8-.51c-1.07-.68-2.15-1.36-3.24-2A266.39,266.39,0,0,0,48.52,14.44q-4.16-1.92-8.41-3.69A39.84,39.84,0,0,0,27,16.82Q37.06,19.4,46.5,22.47a301,301,0,0,1,29,11.08c1.12.5,2.23,1,3.33,1.51l.83.38.82.32c.56.21,1.1.43,1.65.66q3.27,1.32,6.39,2.84l.19.1c-.16-.63-.34-1.24-.53-1.85Q85.44,35.56,82.65,33.53Z"
            style="fill-rule: evenodd;"></path>
        <path xmlns="http://www.w3.org/2000/svg"
            d="M87.76,43.12c-2.08-.66-4.21-1.39-6.38-2.17l-1.64-.59-.82-.3-.81-.24-3.37-1c-4.56-1.37-9.33-2.81-14.28-4.27-2.48-.72-5-1.46-7.58-2.19L49,31.26l-2-.54-1-.27-1-.26c-1.37-.32-2.72-.63-4.09-.93l-4.13-.89q-4.15-.87-8.45-1.69c-3.21-.61-6.47-1.21-9.78-1.77a39.76,39.76,0,0,0-5.79,10.22q7.17.66,14,1.38c3,.31,5.86.63,8.72,1l4.24.5c1.39.16,2.78.33,4.12.51l1,.13,1,.15,2,.32,4,.65L59.44,41c5.07.83,9.93,1.62,14.6,2.32l3.48.5.88.12c.28,0,.57,0,.85.05l1.69.1q3.36.21,6.56.52l2.23.23-.15-1.15C89,43.51,88.37,43.32,87.76,43.12Z"
            style="fill-rule: evenodd;"></path>
        <path xmlns="http://www.w3.org/2000/svg"
            d="M85.94,55.23a63.91,63.91,0,0,1-6.49,2.12l-1.68.43-.42.1-.11,0,0,0-.06,0h-.06l-.58.15c-.44.09-.92.17-1.43.24s-1,.12-1.56.16c-1.08.09-2.19.12-3.32.13s-2.31,0-3.48-.08c-2.38-.11-4.85-.31-7.41-.54s-5.23-.5-8-.72c-1.39-.12-2.79-.22-4.22-.31-.71,0-1.43-.09-2.16-.12l-1.09,0-1.13,0a75.12,75.12,0,0,0-9.21.4c-3.09.32-6.18.82-9.28,1.44S18,60,15,60.82l-3.08.85a40.21,40.21,0,0,0,4.88,10.11l1.76-.65c2.75-1,5.48-1.9,8.19-2.7s5.42-1.47,8.08-2a66.5,66.5,0,0,1,7.81-1.08l.95-.06,1,0c.65,0,1.3-.06,1.95-.09,1.29,0,2.57-.08,3.84-.1,2.54,0,5,0,7.45-.08s4.79-.08,7.12-.22c1.17-.07,2.32-.16,3.46-.29s2.3-.3,3.47-.52c.59-.12,1.18-.25,1.79-.4s1.23-.35,1.92-.59c.34-.12.7-.26,1.09-.43l.15-.07.16-.07.15-.07.11-.06.42-.24,1.66-1c2.21-1.3,4.38-2.61,6.5-3.95q2-1.24,3.91-2.51l.12-1C88.53,54.17,87.25,54.72,85.94,55.23Z"
            style="fill-rule: evenodd;"></path>
    </g>
    <g id="SvgjsG1549" featurekey="nameFeature-0"
        transform="matrix(0.6911093229472898,0,0,0.6911093229472898,83.4763452764714,-1.8694048720486531)"
        fill="#ffffff">
        <path
            d="M21.445 11.777000000000001 l5.8594 0 l0 28.223 l-5.8594 0 l0 -11.602 l-11.934 0 l0 11.602 l-5.8594 0 l0 -28.223 l5.8594 0 l0 11.523 l11.934 0 l0 -11.523 z M53.49603125 40 l-2.0508 -5.8203 l-11.855 0 l-2.0508 5.8203 l-5.9961 0 l10.391 -28.223 l7.168 0 l10.391 28.223 l-5.9961 0 z M41.309031250000004 29.277 l8.418 0 l-4.1992 -11.973 z M96.07412500000001 40 l-5.8398 0 l-1.8555 -21.27 l-7.1484 21.27 l-3.7891 0 l-7.1484 -21.27 l-1.875 21.27 l-5.8594 0 l2.3633 -28.223 l8.3594 0 l6.0156 17.715 l6.0938 -17.715 l8.3594 0 z M102.2069875 40 l0 -28.223 l5.8594 0 l0 28.223 l-5.8594 0 z M115.35151875 40 l0 -28.223 l10.215 0 c9.0039 0 13.457 5.6641 13.457 14.102 c0 8.457 -4.4531 14.121 -13.457 14.121 l-10.215 0 z M121.21091875 34.8242 l4.0625 0 c5.1953 0 7.5781 -3.2422 7.5781 -8.9453 s-2.3828 -8.9453 -7.5781 -8.9453 l-4.0625 0 l0 17.891 z M173.789 40 l-2.0508 -5.8203 l-11.855 0 l-2.0508 5.8203 l-5.9961 0 l10.391 -28.223 l7.168 0 l10.391 28.223 l-5.9961 0 z M161.602 29.277 l8.418 0 l-4.1992 -11.973 z M198.92609375 40 l-7.3438 -12.422 l-1.6992 0 l0 12.422 l-5.8594 0 l0 -28.223 l10.234 0 c6.3867 0 9.082 3.7695 9.082 8.4375 c0 3.7891 -2.1484 6.25 -5.9766 7.0703 l8.4961 12.715 l-6.9336 0 z M189.88279375 16.641 l0 6.7383 l3.457 0 c3.125 0 4.3945 -1.3281 4.3945 -3.3594 c0 -2.0117 -1.2695 -3.3789 -4.3945 -3.3789 l-3.457 0 z M229.04290625 40 l-2.0508 -5.8203 l-11.855 0 l-2.0508 5.8203 l-5.9961 0 l10.391 -28.223 l7.168 0 l10.391 28.223 l-5.9961 0 z M216.85590625 29.277 l8.418 0 l-4.1992 -11.973 z M254.434 25.098 c3.1836 0.87891 5.3125 2.9688 5.3125 6.9922 c0 4.7656 -2.8906 7.9102 -8.8477 7.9102 l-11.621 0 l0 -28.223 l9.1406 0 c6.0938 0 9.2969 2.9297 9.2969 7.7344 c0 2.4805 -1.0742 4.5117 -3.2813 5.5859 z M248.477 16.641 l-3.5547 0 l0 6.6406 l3.8086 0 c2.5 0 3.5938 -1.4844 3.5938 -3.3984 c0 -1.875 -1.2305 -3.2422 -3.8477 -3.2422 z M249.805 34.9805 c3.1641 0 4.2578 -1.6992 4.2578 -3.5352 c0 -1.875 -1.0742 -3.6523 -4.375 -3.6523 l-4.7656 0 l0 7.1875 l4.8828 0 z M274.33559375 40.39063 c-6.0547 0 -10.781 -2.9102 -11.641 -8.2031 l6.0547 -1.3867 c0.39063 3.1641 2.7148 4.8047 5.8203 4.8047 c2.3828 0 4.2773 -1.0547 4.2578 -3.4375 c-0.019531 -2.6563 -3.1445 -3.4961 -6.582 -4.5508 c-4.1406 -1.2891 -8.5742 -2.8125 -8.5742 -8.0078 c0 -5.2539 4.2969 -8.2227 9.9609 -8.2227 c4.9609 0 9.9609 2.0117 11.094 7.4219 l-5.6641 1.4063 c-0.52734 -2.8125 -2.4219 -4.043 -5.0781 -4.043 c-2.3633 0 -4.375 0.97656 -4.375 3.3008 c0 2.168 2.7734 2.8906 5.9766 3.8477 c4.2578 1.2891 9.2969 2.9297 9.2969 8.5547 c0 5.9961 -5.0195 8.5156 -10.547 8.5156 z M302.792625 40.39063 c-8.3008 0 -14.434 -5.6641 -14.434 -14.512 c0 -8.8672 6.1328 -14.492 14.434 -14.492 c8.2813 0 14.414 5.625 14.414 14.492 c0 8.8477 -6.1328 14.512 -14.414 14.512 z M302.792625 35.0195 c4.8633 0 8.5938 -3.418 8.5938 -9.1406 c0 -5.7031 -3.7305 -9.1016 -8.5938 -9.1016 s-8.5938 3.3984 -8.5938 9.1016 c0 5.7227 3.7305 9.1406 8.5938 9.1406 z M337.5003125 40 l-7.3438 -12.422 l-1.6992 0 l0 12.422 l-5.8594 0 l0 -28.223 l10.234 0 c6.3867 0 9.082 3.7695 9.082 8.4375 c0 3.7891 -2.1484 6.25 -5.9766 7.0703 l8.4961 12.715 l-6.9336 0 z M328.4570125 16.641 l0 6.7383 l3.457 0 c3.125 0 4.3945 -1.3281 4.3945 -3.3594 c0 -2.0117 -1.2695 -3.3789 -4.3945 -3.3789 l-3.457 0 z M365.430125 40 l-8.7695 -11.992 l-2.0703 0 l0 11.992 l-5.8594 0 l0 -28.223 l5.8594 0 l0 11.094 l1.9922 0 l8.8477 -11.094 l7.1484 0 l-10.938 13.496 l11.27 14.727 l-7.4805 0 z M394.90203125 11.777000000000001 l5.8594 0 l0 28.223 l-5.8594 0 l0 -11.602 l-11.934 0 l0 11.602 l-5.8594 0 l0 -28.223 l5.8594 0 l0 11.523 l11.934 0 l0 -11.523 z M408.0663625 40 l0 -28.223 l5.8594 0 l0 28.223 l-5.8594 0 z"></path>
    </g>
    <g id="SvgjsG1550" featurekey="sloganFeature-0"
        transform="matrix(0.9868980349194043,0,0,0.9868980349194043,84.19782515358558,40.381342585753394)"
        fill="#f5f5f5">
        <path
            d="M7.6953 5.888999999999999 c2.7637 0 4.4824 2.0508 4.4824 4.5605 c0 2.5684 -1.7188 4.4922 -4.4824 4.4922 l-2.9395 0 l0 5.0586 l-2.9297 0 l0 -14.111 l5.8691 0 z M7.207 12.4902 c1.4648 0 2.1484 -0.81055 2.1484 -2.0801 c0 -1.2207 -0.68359 -2.0703 -2.1484 -2.0703 l-2.4512 0 l0 4.1504 l2.4512 0 z M22.341542968749998 8.467 l-5.2344 0 l0 3.2031 l4.6387 0 l0 2.5488 l-4.6387 0 l0 3.1934 l5.2344 0 l0 2.5879 l-8.1836 0 l0 -14.111 l8.1836 0 l0 2.5781 z M32.3290578125 20 l-3.6719 -6.2109 l-0.84961 0 l0 6.2109 l-2.9297 0 l0 -14.111 l5.1172 0 c3.1934 0 4.541 1.8848 4.541 4.2188 c0 1.8945 -1.0742 3.125 -2.9883 3.5352 l4.248 6.3574 l-3.4668 0 z M27.8076578125 8.32 l0 3.3691 l1.7285 0 c1.5625 0 2.1973 -0.66406 2.1973 -1.6797 c0 -1.0059 -0.63477 -1.6895 -2.1973 -1.6895 l-1.7285 0 z M42.15090703125 20.19531 c-3.0273 0 -5.3906 -1.4551 -5.8203 -4.1016 l3.0273 -0.69336 c0.19531 1.582 1.3574 2.4023 2.9102 2.4023 c1.1914 0 2.1387 -0.52734 2.1289 -1.7188 c-0.0097656 -1.3281 -1.5723 -1.748 -3.291 -2.2754 c-2.0703 -0.64453 -4.2871 -1.4063 -4.2871 -4.0039 c0 -2.627 2.1484 -4.1113 4.9805 -4.1113 c2.4805 0 4.9805 1.0059 5.5469 3.7109 l-2.832 0.70313 c-0.26367 -1.4063 -1.2109 -2.0215 -2.5391 -2.0215 c-1.1816 0 -2.1875 0.48828 -2.1875 1.6504 c0 1.084 1.3867 1.4453 2.9883 1.9238 c2.1289 0.64453 4.6484 1.4648 4.6484 4.2773 c0 2.998 -2.5098 4.2578 -5.2734 4.2578 z M55.898465625 20.19531 c-4.1504 0 -7.2168 -2.832 -7.2168 -7.2559 c0 -4.4336 3.0664 -7.2461 7.2168 -7.2461 c4.1406 0 7.207 2.8125 7.207 7.2461 c0 4.4238 -3.0664 7.2559 -7.207 7.2559 z M55.898465625 17.5098 c2.4316 0 4.2969 -1.709 4.2969 -4.5703 c0 -2.8516 -1.8652 -4.5508 -4.2969 -4.5508 s-4.2969 1.6992 -4.2969 4.5508 c0 2.8613 1.8652 4.5703 4.2969 4.5703 z M74.95865234375 5.888999999999999 l2.9199 0 l0 14.111 l-3.3887 0 l-6.25 -10.088 l0 10.088 l-2.9199 0 l0 -14.111 l3.3496 0 l6.2891 10.029 l0 -10.029 z M90.4936328125 20 l-1.0254 -2.9102 l-5.9277 0 l-1.0254 2.9102 l-2.998 0 l5.1953 -14.111 l3.584 0 l5.1953 14.111 l-2.998 0 z M84.3994328125 14.6387 l4.209 0 l-2.0996 -5.9863 z M98.05912265625 17.4121 l4.4238 0 l0 2.5879 l-7.3535 0 l0 -14.111 l2.9297 0 l0 11.523 z M111.24756484375 20 l-3.6914 -14.111 l3.0469 0 l2.7539 10.684 l3.1543 -10.684 l2.4707 0 l3.1348 10.684 l2.7832 -10.684 l3.0371 0 l-3.6914 14.111 l-3.7695 0 l-2.7344 -8.7207 l-2.7246 8.7207 l-3.7695 0 z M137.8957421875 8.467 l-5.2344 0 l0 3.2031 l4.6387 0 l0 2.5488 l-4.6387 0 l0 3.1934 l5.2344 0 l0 2.5879 l-8.1836 0 l0 -14.111 l8.1836 0 l0 2.5781 z M148.01025703125 12.5488 c1.5918 0.43945 2.6563 1.4844 2.6563 3.4961 c0 2.3828 -1.4453 3.9551 -4.4238 3.9551 l-5.8105 0 l0 -14.111 l4.5703 0 c3.0469 0 4.6484 1.4648 4.6484 3.8672 c0 1.2402 -0.53711 2.2559 -1.6406 2.793 z M145.03175703125 8.32 l-1.7773 0 l0 3.3203 l1.9043 0 c1.25 0 1.7969 -0.74219 1.7969 -1.6992 c0 -0.9375 -0.61523 -1.6211 -1.9238 -1.6211 z M145.69575703125 17.4902 c1.582 0 2.1289 -0.84961 2.1289 -1.7676 c0 -0.9375 -0.53711 -1.8262 -2.1875 -1.8262 l-2.3828 0 l0 3.5938 l2.4414 0 z M158.662096875 5.888999999999999 c2.7637 0 4.4824 2.0508 4.4824 4.5605 c0 2.5684 -1.7188 4.4922 -4.4824 4.4922 l-2.9395 0 l0 5.0586 l-2.9297 0 l0 -14.111 l5.8691 0 z M158.173796875 12.4902 c1.4648 0 2.1484 -0.81055 2.1484 -2.0801 c0 -1.2207 -0.68359 -2.0703 -2.1484 -2.0703 l-2.4512 0 l0 4.1504 l2.4512 0 z M174.56833984375 20 l-1.0254 -2.9102 l-5.9277 0 l-1.0254 2.9102 l-2.998 0 l5.1953 -14.111 l3.584 0 l5.1953 14.111 l-2.998 0 z M168.47413984375 14.6387 l4.209 0 l-2.0996 -5.9863 z M185.3076296875 20.19531 c-4.0723 0 -7.0703 -2.8125 -7.0703 -7.2168 c0 -4.4629 3.0664 -7.2852 7.2168 -7.2852 c2.7246 0 4.9805 1.2012 6.2109 3.3203 l-2.5684 1.3672 c-0.74219 -1.4453 -2.0703 -2.1387 -3.6426 -2.1387 c-2.4414 0 -4.2773 1.6797 -4.2773 4.668 c0 2.8809 1.7188 4.7363 4.3848 4.7363 c1.8066 0 3.4668 -0.89844 3.8672 -2.959 l-3.8574 0 l0 -2.3535 l6.6309 0 l0 7.666 l-2.3047 0 l0 -1.9531 c-0.9082 1.3379 -2.4316 2.1484 -4.5898 2.1484 z M202.94212890625 8.467 l-5.2344 0 l0 3.2031 l4.6387 0 l0 2.5488 l-4.6387 0 l0 3.1934 l5.2344 0 l0 2.5879 l-8.1836 0 l0 -14.111 l8.1836 0 l0 2.5781 z"></path>
    </g>
</svg>